<svg xmlns = "http://www.w3.org/2000/svg" width = "1000" height = "1000">
<g>
<circle cx = "934.924" cy = "997.860" r="5"/></g>
<g>
<circle cx = "910.345" cy = "892.382" r="5"/></g>
<g>
<circle cx = "992.511" cy = "336.471" r="5"/></g>
<g>
<circle cx = "658.027" cy = "541.164" r="5"/></g>
<g>
<circle cx = "474.764" cy = "377.080" r="5"/></g>
<g>
<circle cx = "780.539" cy = "72.681" r="5"/></g>
<g>
<circle cx = "353.424" cy = "283.695" r="5"/></g>
<g>
<circle cx = "676.513" cy = "111.639" r="5"/></g>
<g>
<circle cx = "414.327" cy = "383.270" r="5"/></g>
<g>
<circle cx = "512.617" cy = "209.487" r="5"/></g>
<g>
<circle cx = "468.273" cy = "991.532" r="5"/></g>
<g>
<circle cx = "699.356" cy = "946.326" r="5"/></g>
<g>
<circle cx = "788.978" cy = "177.803" r="5"/></g>
<g>
<circle cx = "595.542" cy = "413.217" r="5"/></g>
<g>
<circle cx = "33.254" cy = "11.682" r="5"/></g>
<g>
<circle cx = "734.019" cy = "384.151" r="5"/></g>
<g>
<circle cx = "677.680" cy = "76.266" r="5"/></g>
<g>
<circle cx = "742.247" cy = "363.450" r="5"/></g>
<g>
<circle cx = "370.944" cy = "64.931" r="5"/></g>
<g>
<circle cx = "843.581" cy = "964.195" r="5"/></g>
<g>
<circle cx = "835.788" cy = "342.581" r="5"/></g>
<g>
<circle cx = "82.350" cy = "357.680" r="5"/></g>
<g>
<circle cx = "171.875" cy = "837.429" r="5"/></g>
<g>
<circle cx = "498.519" cy = "967.366" r="5"/></g>
<g>
<circle cx = "655.322" cy = "637.400" r="5"/></g>
<g>
<circle cx = "364.400" cy = "905.235" r="5"/></g>
<g>
<circle cx = "988.363" cy = "570.456" r="5"/></g>
<g>
<circle cx = "430.078" cy = "577.133" r="5"/></g>
<g>
<circle cx = "369.568" cy = "892.157" r="5"/></g>
<g>
<circle cx = "854.982" cy = "339.655" r="5"/></g>
<g>
<circle cx = "11.062" cy = "888.620" r="5"/></g>
<g>
<circle cx = "583.348" cy = "686.967" r="5"/></g>
<g>
<circle cx = "833.181" cy = "858.745" r="5"/></g>
<g>
<circle cx = "230.958" cy = "95.336" r="5"/></g>
<g>
<circle cx = "708.828" cy = "621.432" r="5"/></g>
<g>
<circle cx = "748.989" cy = "990.118" r="5"/></g>
<g>
<circle cx = "146.378" cy = "261.956" r="5"/></g>
<g>
<circle cx = "707.042" cy = "612.315" r="5"/></g>
<g>
<circle cx = "114.768" cy = "333.598" r="5"/></g>
<g>
<circle cx = "359.968" cy = "578.708" r="5"/></g>
<g>
<circle cx = "691.207" cy = "38.950" r="5"/></g>
<g>
<circle cx = "960.078" cy = "86.595" r="5"/></g>
<g>
<circle cx = "721.353" cy = "790.470" r="5"/></g>
<g>
<circle cx = "256.841" cy = "169.213" r="5"/></g>
<g>
<circle cx = "946.250" cy = "121.062" r="5"/></g>
<g>
<circle cx = "645.553" cy = "971.864" r="5"/></g>
<g>
<circle cx = "156.737" cy = "240.049" r="5"/></g>
<g>
<circle cx = "78.418" cy = "516.253" r="5"/></g>
<g>
<circle cx = "676.970" cy = "236.615" r="5"/></g>
<g>
<circle cx = "104.940" cy = "4.802" r="5"/></g>
<g>
<circle cx = "645.100" cy = "224.680" r="5"/></g>
<g>
<circle cx = "117.537" cy = "674.347" r="5"/></g>
<g>
<circle cx = "718.179" cy = "672.351" r="5"/></g>
<g>
<circle cx = "38.961" cy = "79.352" r="5"/></g>
<g>
<circle cx = "253.921" cy = "785.443" r="5"/></g>
<g>
<circle cx = "872.290" cy = "347.257" r="5"/></g>
<g>
<circle cx = "150.888" cy = "772.572" r="5"/></g>
<g>
<circle cx = "925.081" cy = "911.330" r="5"/></g>
<g>
<circle cx = "641.257" cy = "373.826" r="5"/></g>
<g>
<circle cx = "389.413" cy = "591.812" r="5"/></g>
<g>
<circle cx = "691.631" cy = "407.822" r="5"/></g>
<g>
<circle cx = "585.178" cy = "781.640" r="5"/></g>
<g>
<circle cx = "220.640" cy = "441.492" r="5"/></g>
<g>
<circle cx = "960.364" cy = "953.357" r="5"/></g>
<g>
<circle cx = "628.517" cy = "32.256" r="5"/></g>
<g>
<circle cx = "798.804" cy = "414.668" r="5"/></g>
<g>
<circle cx = "196.290" cy = "109.449" r="5"/></g>
<g>
<circle cx = "787.941" cy = "522.683" r="5"/></g>
<g>
<circle cx = "216.724" cy = "177.769" r="5"/></g>
<g>
<circle cx = "219.427" cy = "115.157" r="5"/></g>
<g>
<circle cx = "955.667" cy = "205.319" r="5"/></g>
<g>
<circle cx = "373.518" cy = "238.215" r="5"/></g>
<g>
<circle cx = "472.067" cy = "524.778" r="5"/></g>
<g>
<circle cx = "899.497" cy = "834.119" r="5"/></g>
<g>
<circle cx = "359.509" cy = "198.889" r="5"/></g>
<g>
<circle cx = "645.150" cy = "314.480" r="5"/></g>
<g>
<circle cx = "626.752" cy = "44.404" r="5"/></g>
<g>
<circle cx = "809.112" cy = "717.495" r="5"/></g>
<g>
<circle cx = "719.212" cy = "572.960" r="5"/></g>
<g>
<circle cx = "740.650" cy = "729.575" r="5"/></g>
<g>
<circle cx = "765.731" cy = "358.122" r="5"/></g>
<g>
<circle cx = "479.124" cy = "308.982" r="5"/></g>
<g>
<circle cx = "55.235" cy = "32.785" r="5"/></g>
<g>
<circle cx = "542.229" cy = "301.337" r="5"/></g>
<g>
<circle cx = "197.066" cy = "971.553" r="5"/></g>
<g>
<circle cx = "12.335" cy = "573.500" r="5"/></g>
<g>
<circle cx = "16.706" cy = "207.178" r="5"/></g>
<g>
<circle cx = "831.682" cy = "149.423" r="5"/></g>
<g>
<circle cx = "124.735" cy = "260.627" r="5"/></g>
<g>
<circle cx = "916.060" cy = "825.709" r="5"/></g>
<g>
<circle cx = "367.177" cy = "328.515" r="5"/></g>
<g>
<circle cx = "563.473" cy = "893.533" r="5"/></g>
<g>
<circle cx = "524.306" cy = "325.388" r="5"/></g>
<g>
<circle cx = "901.549" cy = "104.850" r="5"/></g>
<g>
<circle cx = "482.265" cy = "526.176" r="5"/></g>
<g>
<circle cx = "598.365" cy = "871.260" r="5"/></g>
<g>
<circle cx = "371.070" cy = "984.842" r="5"/></g>
<g>
<circle cx = "22.932" cy = "705.734" r="5"/></g>
<g>
<circle cx = "945.464" cy = "743.446" r="5"/></g>
<g>
<circle cx = "389.153" cy = "812.645" r="5"/></g>
<g>
<polygon points = "990.314, 1000.000 882.260, 1000.000 897.637, 958.277 914.058, 956.409 "
fill = "none" stroke = "black"/>
</g>
<g>
<polygon points = "922.996, 859.885 966.848, 863.643 880.044, 931.153 856.907, 909.643 874.676, 868.882 "
fill = "none" stroke = "black"/>
</g>
<g>
<polygon points = "942.337, 452.611 927.215, 284.063 1000.000, 263.616 1000.000, 453.633 "
fill = "none" stroke = "black"/>
</g>
<g>
<polygon points = "718.406, 499.744 676.084, 581.183 664.028, 589.489 567.402, 586.773 565.692, 585.897 572.710, 503.599 646.782, 467.425 716.301, 484.945 "
fill = "none" stroke = "black"/>
</g>
<g>
<polygon points = "487.356, 451.183 451.752, 450.533 440.502, 340.697 491.981, 343.994 537.427, 387.550 518.862, 449.598 "
fill = "none" stroke = "black"/>
</g>
<g>
<polygon points = "841.365, 87.557 784.826, 125.237 742.194, 128.659 729.849, 95.694 729.086, 73.790 756.949, 0.000 864.641, 0.000 "
fill = "none" stroke = "black"/>
</g>
<g>
<polygon points = "257.418, 337.674 244.255, 326.598 247.432, 296.342 252.728, 272.476 256.779, 267.248 292.947, 236.734 311.694, 238.079 418.501, 285.268 417.863, 288.442 "
fill = "none" stroke = "black"/>
</g>
<g>
<polygon points = "632.114, 92.467 729.849, 95.694 742.194, 128.659 715.529, 173.985 682.208, 174.107 586.826, 147.601 577.876, 132.609 "
fill = "none" stroke = "black"/>
</g>
<g>
<polygon points = "381.180, 479.329 333.633, 466.104 319.060, 417.626 424.553, 326.786 440.502, 340.697 451.752, 450.533 "
fill = "none" stroke = "black"/>
</g>
<g>
<polygon points = "505.506, 262.478 446.976, 242.775 436.802, 193.514 440.621, 138.346 500.828, 79.340 577.876, 132.609 586.826, 147.601 576.269, 239.664 "
fill = "none" stroke = "black"/>
</g>
<g>
<polygon points = "422.960, 940.411 435.217, 925.658 438.116, 922.778 499.816, 1000.000 418.859, 1000.000 "
fill = "none" stroke = "black"/>
</g>
<g>
<polygon points = "648.688, 909.025 681.873, 864.378 747.344, 873.619 773.023, 912.856 696.135, 1000.000 691.870, 1000.000 "
fill = "none" stroke = "black"/>
</g>
<g>
<polygon points = "862.548, 242.185 832.191, 254.565 782.634, 268.643 763.967, 266.237 715.529, 173.985 742.194, 128.659 784.826, 125.237 "
fill = "none" stroke = "black"/>
</g>
<g>
<polygon points = "582.060, 351.348 644.321, 423.604 646.782, 467.425 572.710, 503.599 518.862, 449.598 537.427, 387.550 "
fill = "none" stroke = "black"/>
</g>
<g>
<polygon points = "20.638, 46.821 0.000, 48.562 0.000, 0.000 65.591, 0.000 "
fill = "none" stroke = "black"/>
</g>
<g>
<polygon points = "768.844, 394.246 742.767, 449.605 690.246, 355.556 690.330, 354.801 758.806, 382.018 "
fill = "none" stroke = "black"/>
</g>
<g>
<polygon points = "659.564, 48.590 729.086, 73.790 729.849, 95.694 632.114, 92.467 "
fill = "none" stroke = "black"/>
</g>
<g>
<polygon points = "758.806, 382.018 690.330, 354.801 689.549, 347.193 714.639, 297.443 737.005, 285.933 "
fill = "none" stroke = "black"/>
</g>
<g>
<polygon points = "496.002, 19.205 500.828, 79.340 440.621, 138.346 324.257, 128.413 307.441, 110.013 283.546, 0.000 493.566, 0.000 "
fill = "none" stroke = "black"/>
</g>
<g>
<polygon points = "779.865, 917.241 856.907, 909.643 880.044, 931.153 897.637, 958.277 882.260, 1000.000 802.545, 1000.000 "
fill = "none" stroke = "black"/>
</g>
<g>
<polygon points = "850.352, 373.700 847.721, 394.234 805.713, 372.682 782.634, 268.643 832.191, 254.565 "
fill = "none" stroke = "black"/>
</g>
<g>
<polygon points = "45.936, 283.996 56.048, 288.411 145.716, 409.121 128.123, 438.150 0.000, 434.973 0.000, 304.031 "
fill = "none" stroke = "black"/>
</g>
<g>
<polygon points = "109.170, 918.634 81.252, 830.929 200.749, 792.262 261.961, 888.869 261.558, 890.012 "
fill = "none" stroke = "black"/>
</g>
<g>
<polygon points = "438.116, 922.778 466.625, 873.897 466.674, 873.862 572.127, 966.634 571.106, 1000.000 499.816, 1000.000 "
fill = "none" stroke = "black"/>
</g>
<g>
<polygon points = "679.967, 622.352 688.653, 651.455 654.387, 713.080 567.402, 586.773 664.028, 589.489 "
fill = "none" stroke = "black"/>
</g>
<g>
<polygon points = "286.078, 951.880 261.558, 890.012 261.961, 888.869 286.002, 866.697 435.217, 925.658 422.960, 940.411 "
fill = "none" stroke = "black"/>
</g>
<g>
<polygon points = "894.690, 639.040 872.545, 612.045 904.065, 479.808 914.535, 467.069 942.337, 452.611 1000.000, 453.633 1000.000, 665.156 "
fill = "none" stroke = "black"/>
</g>
<g>
<polygon points = "471.432, 567.284 518.547, 615.536 455.917, 702.935 452.278, 702.302 394.203, 541.414 393.378, 504.683 "
fill = "none" stroke = "black"/>
</g>
<g>
<polygon points = "286.002, 866.697 314.041, 836.311 466.625, 873.897 438.116, 922.778 435.217, 925.658 "
fill = "none" stroke = "black"/>
</g>
<g>
<polygon points = "864.565, 241.938 897.412, 266.557 850.352, 373.700 832.191, 254.565 862.548, 242.185 "
fill = "none" stroke = "black"/>
</g>
<g>
<polygon points = "55.302, 799.663 81.252, 830.929 109.170, 918.634 72.892, 1000.000 0.000, 1000.000 0.000, 796.074 "
fill = "none" stroke = "black"/>
</g>
<g>
<polygon points = "654.387, 713.080 656.190, 729.716 655.320, 732.930 477.552, 736.365 455.917, 702.935 518.547, 615.536 565.692, 585.897 567.402, 586.773 "
fill = "none" stroke = "black"/>
</g>
<g>
<polygon points = "779.865, 917.241 773.023, 912.856 747.344, 873.619 797.036, 792.228 843.284, 784.348 874.676, 868.882 856.907, 909.643 "
fill = "none" stroke = "black"/>
</g>
<g>
<polygon points = "307.441, 110.013 261.221, 126.206 211.557, 97.314 183.508, 28.411 203.920, 0.000 283.546, 0.000 "
fill = "none" stroke = "black"/>
</g>
<g>
<polygon points = "803.757, 616.420 807.165, 619.150 794.914, 631.940 688.653, 651.455 679.967, 622.352 759.097, 606.853 "
fill = "none" stroke = "black"/>
</g>
<g>
<polygon points = "773.023, 912.856 779.865, 917.241 802.545, 1000.000 696.135, 1000.000 "
fill = "none" stroke = "black"/>
</g>
<g>
<polygon points = "136.622, 243.939 247.432, 296.342 244.255, 326.598 219.295, 336.922 133.244, 298.955 "
fill = "none" stroke = "black"/>
</g>
<g>
<polygon points = "759.097, 606.853 679.967, 622.352 664.028, 589.489 676.084, 581.183 "
fill = "none" stroke = "black"/>
</g>
<g>
<polygon points = "133.244, 298.955 219.295, 336.922 145.716, 409.121 56.048, 288.411 "
fill = "none" stroke = "black"/>
</g>
<g>
<polygon points = "393.378, 504.683 394.203, 541.414 327.021, 692.374 248.925, 652.314 220.702, 580.773 333.633, 466.104 381.180, 479.329 "
fill = "none" stroke = "black"/>
</g>
<g>
<polygon points = "729.086, 73.790 659.564, 48.590 659.083, 42.900 663.663, 0.000 756.949, 0.000 "
fill = "none" stroke = "black"/>
</g>
<g>
<polygon points = "930.506, 94.738 900.957, 0.000 1000.000, 0.000 1000.000, 122.619 "
fill = "none" stroke = "black"/>
</g>
<g>
<polygon points = "651.213, 817.703 656.485, 736.410 784.300, 776.912 797.036, 792.228 747.344, 873.619 681.873, 864.378 "
fill = "none" stroke = "black"/>
</g>
<g>
<polygon points = "231.138, 147.027 261.221, 126.206 307.441, 110.013 324.257, 128.413 292.947, 236.734 256.779, 267.248 "
fill = "none" stroke = "black"/>
</g>
<g>
<polygon points = "903.768, 168.465 930.506, 94.738 1000.000, 122.619 1000.000, 157.709 "
fill = "none" stroke = "black"/>
</g>
<g>
<polygon points = "572.127, 966.634 609.616, 927.351 648.688, 909.025 691.870, 1000.000 571.106, 1000.000 "
fill = "none" stroke = "black"/>
</g>
<g>
<polygon points = "96.572, 181.653 102.530, 156.270 106.321, 153.491 139.683, 163.595 252.728, 272.476 247.432, 296.342 136.622, 243.939 "
fill = "none" stroke = "black"/>
</g>
<g>
<polygon points = "128.123, 438.150 197.753, 570.612 90.632, 597.118 0.000, 492.495 0.000, 434.973 "
fill = "none" stroke = "black"/>
</g>
<g>
<polygon points = "737.005, 285.933 714.639, 297.443 646.456, 269.579 682.208, 174.107 715.529, 173.985 763.967, 266.237 "
fill = "none" stroke = "black"/>
</g>
<g>
<polygon points = "183.508, 28.411 119.572, 84.223 114.294, 79.552 69.507, 0.000 203.920, 0.000 "
fill = "none" stroke = "black"/>
</g>
<g>
<polygon points = "646.456, 269.579 598.581, 269.606 576.269, 239.664 586.826, 147.601 682.208, 174.107 "
fill = "none" stroke = "black"/>
</g>
<g>
<polygon points = "52.577, 636.817 90.632, 597.118 197.753, 570.612 220.702, 580.773 248.925, 652.314 212.671, 696.821 86.676, 739.600 "
fill = "none" stroke = "black"/>
</g>
<g>
<polygon points = "768.210, 685.729 656.190, 729.716 654.387, 713.080 688.653, 651.455 794.914, 631.940 "
fill = "none" stroke = "black"/>
</g>
<g>
<polygon points = "20.638, 46.821 114.294, 79.552 119.572, 84.223 106.321, 153.491 102.530, 156.270 0.000, 138.419 0.000, 48.562 "
fill = "none" stroke = "black"/>
</g>
<g>
<polygon points = "212.671, 696.821 248.925, 652.314 327.021, 692.374 341.023, 702.172 314.041, 836.311 286.002, 866.697 261.961, 888.869 200.749, 792.262 "
fill = "none" stroke = "black"/>
</g>
<g>
<polygon points = "914.535, 467.069 847.721, 394.234 850.352, 373.700 897.412, 266.557 927.215, 284.063 942.337, 452.611 "
fill = "none" stroke = "black"/>
</g>
<g>
<polygon points = "86.676, 739.600 212.671, 696.821 200.749, 792.262 81.252, 830.929 55.302, 799.663 "
fill = "none" stroke = "black"/>
</g>
<g>
<polygon points = "914.058, 956.409 897.637, 958.277 880.044, 931.153 966.848, 863.643 1000.000, 860.150 1000.000, 884.257 "
fill = "none" stroke = "black"/>
</g>
<g>
<polygon points = "582.575, 350.106 589.510, 340.632 689.549, 347.193 690.330, 354.801 690.246, 355.556 644.321, 423.604 582.060, 351.348 "
fill = "none" stroke = "black"/>
</g>
<g>
<polygon points = "341.023, 702.172 327.021, 692.374 394.203, 541.414 452.278, 702.302 "
fill = "none" stroke = "black"/>
</g>
<g>
<polygon points = "644.321, 423.604 690.246, 355.556 742.767, 449.605 741.880, 463.497 716.301, 484.945 646.782, 467.425 "
fill = "none" stroke = "black"/>
</g>
<g>
<polygon points = "549.203, 832.713 491.006, 821.424 477.552, 736.365 655.320, 732.930 656.485, 736.410 651.213, 817.703 "
fill = "none" stroke = "black"/>
</g>
<g>
<polygon points = "220.702, 580.773 197.753, 570.612 128.123, 438.150 145.716, 409.121 219.295, 336.922 244.255, 326.598 257.418, 337.674 319.060, 417.626 333.633, 466.104 "
fill = "none" stroke = "black"/>
</g>
<g>
<polygon points = "990.314, 1000.000 914.058, 956.409 1000.000, 884.257 1000.000, 1000.000 "
fill = "none" stroke = "black"/>
</g>
<g>
<polygon points = "659.083, 42.900 496.002, 19.205 493.566, 0.000 663.663, 0.000 "
fill = "none" stroke = "black"/>
</g>
<g>
<polygon points = "741.880, 463.497 742.767, 449.605 768.844, 394.246 805.713, 372.682 847.721, 394.234 914.535, 467.069 904.065, 479.808 "
fill = "none" stroke = "black"/>
</g>
<g>
<polygon points = "119.572, 84.223 183.508, 28.411 211.557, 97.314 199.627, 145.666 139.683, 163.595 106.321, 153.491 "
fill = "none" stroke = "black"/>
</g>
<g>
<polygon points = "904.065, 479.808 872.545, 612.045 807.165, 619.150 803.757, 616.420 718.406, 499.744 716.301, 484.945 741.880, 463.497 "
fill = "none" stroke = "black"/>
</g>
<g>
<polygon points = "199.627, 145.666 231.138, 147.027 256.779, 267.248 252.728, 272.476 139.683, 163.595 "
fill = "none" stroke = "black"/>
</g>
<g>
<polygon points = "199.627, 145.666 211.557, 97.314 261.221, 126.206 231.138, 147.027 "
fill = "none" stroke = "black"/>
</g>
<g>
<polygon points = "927.215, 284.063 897.412, 266.557 864.565, 241.938 895.740, 172.789 903.768, 168.465 1000.000, 157.709 1000.000, 263.616 "
fill = "none" stroke = "black"/>
</g>
<g>
<polygon points = "436.802, 193.514 446.976, 242.775 418.501, 285.268 311.694, 238.079 "
fill = "none" stroke = "black"/>
</g>
<g>
<polygon points = "471.432, 567.284 393.378, 504.683 381.180, 479.329 451.752, 450.533 487.356, 451.183 "
fill = "none" stroke = "black"/>
</g>
<g>
<polygon points = "874.557, 764.488 922.996, 859.885 874.676, 868.882 843.284, 784.348 871.143, 762.757 "
fill = "none" stroke = "black"/>
</g>
<g>
<polygon points = "324.257, 128.413 440.621, 138.346 436.802, 193.514 311.694, 238.079 292.947, 236.734 "
fill = "none" stroke = "black"/>
</g>
<g>
<polygon points = "598.581, 269.606 646.456, 269.579 714.639, 297.443 689.549, 347.193 589.510, 340.632 "
fill = "none" stroke = "black"/>
</g>
<g>
<polygon points = "659.083, 42.900 659.564, 48.590 632.114, 92.467 577.876, 132.609 500.828, 79.340 496.002, 19.205 "
fill = "none" stroke = "black"/>
</g>
<g>
<polygon points = "784.300, 776.912 768.210, 685.729 794.914, 631.940 807.165, 619.150 872.545, 612.045 894.690, 639.040 871.143, 762.757 843.284, 784.348 797.036, 792.228 "
fill = "none" stroke = "black"/>
</g>
<g>
<polygon points = "803.757, 616.420 759.097, 606.853 676.084, 581.183 718.406, 499.744 "
fill = "none" stroke = "black"/>
</g>
<g>
<polygon points = "768.210, 685.729 784.300, 776.912 656.485, 736.410 655.320, 732.930 656.190, 729.716 "
fill = "none" stroke = "black"/>
</g>
<g>
<polygon points = "805.713, 372.682 768.844, 394.246 758.806, 382.018 737.005, 285.933 763.967, 266.237 782.634, 268.643 "
fill = "none" stroke = "black"/>
</g>
<g>
<polygon points = "446.976, 242.775 505.506, 262.478 509.527, 295.671 491.981, 343.994 440.502, 340.697 424.553, 326.786 417.863, 288.442 418.501, 285.268 "
fill = "none" stroke = "black"/>
</g>
<g>
<polygon points = "114.294, 79.552 20.638, 46.821 65.591, 0.000 69.507, 0.000 "
fill = "none" stroke = "black"/>
</g>
<g>
<polygon points = "509.527, 295.671 505.506, 262.478 576.269, 239.664 598.581, 269.606 589.510, 340.632 582.575, 350.106 "
fill = "none" stroke = "black"/>
</g>
<g>
<polygon points = "109.170, 918.634 261.558, 890.012 286.078, 951.880 282.403, 1000.000 72.892, 1000.000 "
fill = "none" stroke = "black"/>
</g>
<g>
<polygon points = "90.632, 597.118 52.577, 636.817 0.000, 641.030 0.000, 492.495 "
fill = "none" stroke = "black"/>
</g>
<g>
<polygon points = "102.530, 156.270 96.572, 181.653 45.936, 283.996 0.000, 304.031 0.000, 138.419 "
fill = "none" stroke = "black"/>
</g>
<g>
<polygon points = "895.740, 172.789 864.565, 241.938 862.548, 242.185 784.826, 125.237 841.365, 87.557 "
fill = "none" stroke = "black"/>
</g>
<g>
<polygon points = "96.572, 181.653 136.622, 243.939 133.244, 298.955 56.048, 288.411 45.936, 283.996 "
fill = "none" stroke = "black"/>
</g>
<g>
<polygon points = "966.848, 863.643 922.996, 859.885 874.557, 764.488 1000.000, 809.326 1000.000, 860.150 "
fill = "none" stroke = "black"/>
</g>
<g>
<polygon points = "257.418, 337.674 417.863, 288.442 424.553, 326.786 319.060, 417.626 "
fill = "none" stroke = "black"/>
</g>
<g>
<polygon points = "609.616, 927.351 572.127, 966.634 466.674, 873.862 491.006, 821.424 549.203, 832.713 "
fill = "none" stroke = "black"/>
</g>
<g>
<polygon points = "509.527, 295.671 582.575, 350.106 582.060, 351.348 537.427, 387.550 491.981, 343.994 "
fill = "none" stroke = "black"/>
</g>
<g>
<polygon points = "930.506, 94.738 903.768, 168.465 895.740, 172.789 841.365, 87.557 864.641, 0.000 900.957, 0.000 "
fill = "none" stroke = "black"/>
</g>
<g>
<polygon points = "518.547, 615.536 471.432, 567.284 487.356, 451.183 518.862, 449.598 572.710, 503.599 565.692, 585.897 "
fill = "none" stroke = "black"/>
</g>
<g>
<polygon points = "549.203, 832.713 651.213, 817.703 681.873, 864.378 648.688, 909.025 609.616, 927.351 "
fill = "none" stroke = "black"/>
</g>
<g>
<polygon points = "286.078, 951.880 422.960, 940.411 418.859, 1000.000 282.403, 1000.000 "
fill = "none" stroke = "black"/>
</g>
<g>
<polygon points = "52.577, 636.817 86.676, 739.600 55.302, 799.663 0.000, 796.074 0.000, 641.030 "
fill = "none" stroke = "black"/>
</g>
<g>
<polygon points = "874.557, 764.488 871.143, 762.757 894.690, 639.040 1000.000, 665.156 1000.000, 809.326 "
fill = "none" stroke = "black"/>
</g>
<g>
<polygon points = "314.041, 836.311 341.023, 702.172 452.278, 702.302 455.917, 702.935 477.552, 736.365 491.006, 821.424 466.674, 873.862 466.625, 873.897 "
fill = "none" stroke = "black"/>
</g>
</svg>
